<svg id="Capa_1" data-name="Capa 1" xmlns="http://www.w3.org/2000/svg" viewBox="0 0 1000 200"><defs><style>.cls-1{fill:#1e1e1c;}.cls-2{fill:#e1251b;}.cls-3{fill:#0047ba;}.cls-4{fill:#009640;}.cls-5{fill:#f7be00;fill-rule:evenodd;}</style></defs><rect class="cls-1" x="547.35" y="27.34" width="1.67" height="150.69"/><path class="cls-1" d="M173.51,159.53h7.35a9.38,9.38,0,0,1,2.95.43,6.45,6.45,0,0,1,2.24,1.27,5.66,5.66,0,0,1,1.41,2,6.42,6.42,0,0,1,.49,2.56v.05a6.16,6.16,0,0,1-.58,2.76,5.8,5.8,0,0,1-1.61,2,7.08,7.08,0,0,1-2.37,1.21,9.86,9.86,0,0,1-2.92.41h-3.71v6h-3.25Zm7.07,9.7a4.4,4.4,0,0,0,3-.94,3.06,3.06,0,0,0,1.08-2.41v0a3,3,0,0,0-1.09-2.5,4.7,4.7,0,0,0-2.95-.85h-3.82v6.75Z"/><path class="cls-1" d="M197.92,159.39h3l8.21,18.79H205.7l-1.89-4.5H195l-1.92,4.5h-3.36Zm4.69,11.38-3.22-7.46-3.2,7.46Z"/><path class="cls-1" d="M212.36,159.53h8.32a9.12,9.12,0,0,1,3.12.49,6.23,6.23,0,0,1,2.26,1.37,5.44,5.44,0,0,1,1.15,1.79,6.14,6.14,0,0,1,.4,2.23v.06a6.05,6.05,0,0,1-.34,2.06,5.31,5.31,0,0,1-.92,1.63,5.42,5.42,0,0,1-1.4,1.2,7,7,0,0,1-1.79.76l5,7.06h-3.86l-4.6-6.5h-4.12v6.5h-3.25Zm8.07,9.24a4.33,4.33,0,0,0,2.8-.84,2.78,2.78,0,0,0,1-2.29v0a2.75,2.75,0,0,0-1-2.32,4.61,4.61,0,0,0-2.86-.79h-4.79v6.29Z"/><path class="cls-1" d="M238.24,159.39h3l8.2,18.79H246l-1.89-4.5h-8.82l-1.92,4.5H230Zm4.69,11.38-3.23-7.46-3.19,7.46Z"/><path class="cls-1" d="M261.53,178.5a10.51,10.51,0,0,1-4-.73,9,9,0,0,1-3.05-2,8.89,8.89,0,0,1-2-3,10.22,10.22,0,0,1-.7-3.79v-.06a9.68,9.68,0,0,1,.72-3.7,9.41,9.41,0,0,1,5.05-5.17,9.57,9.57,0,0,1,3.88-.77,12.72,12.72,0,0,1,2.23.17,10.22,10.22,0,0,1,1.85.49,10,10,0,0,1,1.61.79,11.38,11.38,0,0,1,1.48,1.08l-2.08,2.48a10.46,10.46,0,0,0-1.09-.83,6.6,6.6,0,0,0-1.17-.63,7.37,7.37,0,0,0-1.35-.4,8.86,8.86,0,0,0-1.61-.14,5.39,5.39,0,0,0-2.39.53,6.42,6.42,0,0,0-1.92,1.43,6.63,6.63,0,0,0-1.27,2.1,6.73,6.73,0,0,0-.47,2.53v.06a7.71,7.71,0,0,0,.45,2.67,5.93,5.93,0,0,0,3.28,3.49,6.42,6.42,0,0,0,2.6.51,7.72,7.72,0,0,0,2.48-.39,7,7,0,0,0,2-1v-3.51h-4.77v-2.85h7.94v7.84a13.08,13.08,0,0,1-1.53,1.11,11.24,11.24,0,0,1-3.91,1.56,11.75,11.75,0,0,1-2.34.23"/><path class="cls-1" d="M281.22,178.47a9.69,9.69,0,0,1-3.28-.52,6.46,6.46,0,0,1-2.5-1.56,6.93,6.93,0,0,1-1.6-2.57,10.37,10.37,0,0,1-.56-3.55V159.53h3.25v10.6a5.63,5.63,0,0,0,1.26,4,4.51,4.51,0,0,0,3.49,1.36,4.57,4.57,0,0,0,3.45-1.3,5.4,5.4,0,0,0,1.26-3.89V159.53h3.25v10.58a10.72,10.72,0,0,1-.57,3.65,7.21,7.21,0,0,1-1.61,2.62,6.49,6.49,0,0,1-2.52,1.57,9.89,9.89,0,0,1-3.32.52"/><path class="cls-1" d="M300.35,159.39h3l8.21,18.79h-3.46l-1.9-4.5h-8.82l-1.91,4.5h-3.36ZM305,170.77l-3.22-7.46-3.2,7.46Z"/><polygon class="cls-1" points="320.29 170.82 312.88 159.53 316.74 159.53 321.97 167.79 327.24 159.53 331 159.53 323.59 170.75 323.59 178.18 320.29 178.18 320.29 170.82"/><path class="cls-1" d="M205.35,64.62a17.09,17.09,0,0,1,5.18,11.82A17.61,17.61,0,0,1,202,91.59a25.58,25.58,0,0,1-12.2,2.94c-2.23,0-8-.16-11-.27-2-.06-3.22-.06-4.09-.06-1.2,0-1.85-.49-1.85-.92s.87-.88,1.52-1c3.16-.44,3.49-1,3.65-6.32.11-3.22.17-5.67.11-7.58-.05-2.72.11-8.66-.16-11.87-.27-3.43-.44-4.42-3.27-4.85-.54-.11-1.31-.6-1.31-1s.77-.82,1.53-.82h3.48c2.62,0,9-.43,12.7-.43,7.57,0,12.15,3.21,14.27,5.17m-19.17-2.45a.87.87,0,0,0-.39.76c-.1,1.64-.21,4.47-.21,9.26V80c0,3.76,0,6.32.21,8.71a3.23,3.23,0,0,0,1.09,2.35,7.68,7.68,0,0,0,3.22,1.47c2.12,0,4.25-.6,7.19-3,3.32-2.78,4.79-8.34,4.79-13a18,18,0,0,0-3.59-10.84,13.51,13.51,0,0,0-9.92-4.2,4.49,4.49,0,0,0-2.39.71"/><path class="cls-1" d="M234.39,59.88a29.33,29.33,0,0,0,4.74-.43c.21-.06.65.38.7.76.06.22.06,5.06.06,6.15,0,.77-.44,1.58-.93,1.58s-1-.81-1.09-1.41c-.71-3.11-2.39-4-3.43-4.25a40.53,40.53,0,0,0-7.52-.38c-.21,0-.6.21-.65,1.58s-.22,7.62-.22,11.6a.75.75,0,0,0,.66.6h4.68c3.27,0,3.05-.27,4.09-2.56.38-.82.76-1.53,1.3-1.53s.66.93.6,1.69c-.11,1.47-.22,2.45-.22,3.65a32,32,0,0,0,.22,3.87c.11,1-.27,1.69-.76,1.69s-.93-.65-1.09-1.25c-.71-2.29-1.58-2.84-3.16-3-1.74-.16-3.7-.16-5.5-.16-.22,0-.82.65-.82.76-.16,1.74-.11,5.5-.05,7.08a39,39,0,0,0,.11,4.42,2,2,0,0,0,1.25,1.41,25.47,25.47,0,0,0,4.14.27c2.07,0,3.49.06,4.9-.54a9.29,9.29,0,0,0,4.2-4c.87-1.47,1.41-2.07,1.9-2.07.66,0,.49,1.25.49,1.63a58.93,58.93,0,0,1-2.12,6.54c-.22.49-1.25.76-1.53.76-.6,0-16.61-.22-18.36-.22-4,0-4.35.28-6.21.28-1,0-2-.17-2-.71s.71-1,1.69-1.2c2.78-.65,3.32-1.31,3.54-4.25.17-2.23.44-5.34.44-12,0-6.43.05-9.53-.06-11.11-.11-1.8-.49-3.05-2.83-3.44-1.14-.21-1.8-.43-1.8-1.09,0-.49,1-.81,1.75-.81,2.56,0,8.17.16,10.67.16Z"/><path class="cls-1" d="M266.31,59.83A2.6,2.6,0,0,1,267,61c0,.6.54,5.23.54,5.45,0,.82-.22,1.31-.49,1.31a2.08,2.08,0,0,1-1.69-1.31,9.21,9.21,0,0,0-2.23-3.87,6.41,6.41,0,0,0-4.58-1.69,5.45,5.45,0,0,0-5.23,5.34c0,2.89,2.24,4.69,7.2,7.68,7.89,4.74,8.22,8.5,8.22,11.12a9.77,9.77,0,0,1-5,8.11,16.32,16.32,0,0,1-7.73,2,19.93,19.93,0,0,1-8.17-1.41,5.06,5.06,0,0,1-1.53-1.53,26.3,26.3,0,0,1-1-6.15c0-.38.65-1.2.93-1.2.49,0,1.36,1.25,2.23,2.94,1.74,3.49,4.68,5.34,7.74,5.34,2,0,5.23-1.64,5.23-4.9,0-2.24-1.15-4.31-5.78-7.41-6.05-4-8.88-6.87-8.88-11.83a9.48,9.48,0,0,1,3.43-7.35c1.91-1.53,4.47-2.61,9-2.61a45.65,45.65,0,0,1,7,.87"/><path class="cls-1" d="M290.5,60c.54,1.2,1.52,4.2,2.07,5.78,3.05,8.66,6.59,18.14,7.79,21.08,1.74,4.36,3.1,5,4.68,5.51.93.27,1.47.65,1.47,1s-.6.87-1.79.87-5.94-.22-7.31-.22c-1.79,0-4.63.11-6,.11-1,0-1.75-.32-1.75-.87,0-.27.39-.71,1.42-1,2.13-.54,2.23-1.31,2.23-2.07,0-1-1-3.81-2.28-7.3a2.7,2.7,0,0,0-1-.93c-7.14,0-8.72.17-9.32.17-.16,0-.49.38-.6.6C278.24,87.5,278,89,278,89.9c0,1.31.65,2,2.51,2.45,1.14.27,1.58.55,1.58,1.14,0,.39-.66.71-1.69.71s-2.35-.11-4.36-.11-4.41.22-5.23.22c-1.42,0-1.74-.38-1.74-.71s.16-.76,1.41-1.09c2.78-.7,3.38-1.9,4.91-5,1.36-2.56,7.13-17.65,9.31-22.78,0,0,.27-.7.33-.92a2.65,2.65,0,0,1,.43-.71c.66-.76,2.62-2.89,3-3.49a1.41,1.41,0,0,1,1-.7c.32,0,.54,0,1,1.08m-.71,18.85c-.76-2.39-2.94-8.28-3.82-10.51-.1-.44-.49-.22-.65.22-1,2.61-3.54,9.1-3.76,10.19a.51.51,0,0,0,.44.65c2.07-.06,5.88-.11,7.57-.06a.4.4,0,0,0,.22-.49"/><path class="cls-1" d="M332.82,74.92a18,18,0,0,1-2.39,1.3c-.28.11-.17.49-.06.71a94.73,94.73,0,0,0,8.17,13.13,7.33,7.33,0,0,0,4.36,2.45c.55.11,1,.55,1,.77s-.55.76-1,.87a16.07,16.07,0,0,1-3.93.49c-6.1,0-7.79-2.24-8.71-3.54-1.31-1.86-4.14-6.43-6.48-10.63a7.56,7.56,0,0,0-1.48-2.07,4.1,4.1,0,0,0-2-.7.74.74,0,0,0-.6.48c-.11,1.15-.06,8.56.11,10.79.22,2.4.49,2.83,2.94,3.49.93.27,1.36.65,1.36,1.09,0,.6-1,.87-1.85.87-1.8,0-4.85-.33-7-.33-2.4,0-5.07.22-5.67.22-1.63,0-1.85-.43-1.85-.92,0-.28.65-.71,1.36-.93,2.56-.76,3-1.58,3.11-3.16.43-5.34.32-9.43.32-14.65,0-4.58-.11-9.05-.22-10.25-.1-1-.54-2.12-3.16-2.72-.76-.16-1.41-.6-1.41-1s.87-.87,1.63-.87h4.47c2,0,6.86-.27,9.81-.27,1.85,0,6.91.11,9.75,2.45a8.84,8.84,0,0,1,2.83,6.37c0,3-1.25,4.64-3.49,6.6m-6.48-11.66a5.3,5.3,0,0,0-3.92-1.8,6.48,6.48,0,0,0-1.85.38A2.53,2.53,0,0,0,320,63c-.17,1.79-.44,10.84-.22,12.53a.81.81,0,0,0,.65.54A13,13,0,0,0,325.85,75a6.9,6.9,0,0,0,2.78-5.77,8.24,8.24,0,0,0-2.29-5.94"/><path class="cls-1" d="M367.74,74.92a18,18,0,0,1-2.39,1.3c-.28.11-.17.49-.06.71a94.73,94.73,0,0,0,8.17,13.13,7.3,7.3,0,0,0,4.36,2.45c.55.11,1,.55,1,.77s-.55.76-1,.87a16.13,16.13,0,0,1-3.93.49c-6.1,0-7.79-2.24-8.71-3.54-1.31-1.86-4.14-6.43-6.49-10.63a7.33,7.33,0,0,0-1.47-2.07,4.1,4.1,0,0,0-2-.7.74.74,0,0,0-.6.48c-.11,1.15-.06,8.56.11,10.79.22,2.4.49,2.83,2.94,3.49.93.27,1.36.65,1.36,1.09,0,.6-1,.87-1.85.87-1.8,0-4.85-.33-7-.33-2.4,0-5.07.22-5.67.22-1.63,0-1.85-.43-1.85-.92,0-.28.65-.71,1.36-.93,2.56-.76,3-1.58,3.1-3.16.44-5.34.33-9.43.33-14.65,0-4.58-.11-9.05-.22-10.25-.11-1-.54-2.12-3.16-2.72-.76-.16-1.41-.6-1.41-1s.87-.87,1.63-.87h4.47c2,0,6.86-.27,9.81-.27,1.85,0,6.91.11,9.75,2.45a8.84,8.84,0,0,1,2.83,6.37c0,3-1.25,4.64-3.49,6.6m-6.48-11.66a5.3,5.3,0,0,0-3.92-1.8,6.48,6.48,0,0,0-1.85.38,2.53,2.53,0,0,0-.6,1.15c-.17,1.79-.44,10.84-.22,12.53a.81.81,0,0,0,.65.54A13,13,0,0,0,360.77,75a6.9,6.9,0,0,0,2.78-5.77,8.24,8.24,0,0,0-2.29-5.94"/><path class="cls-1" d="M416.06,76.44a17.6,17.6,0,0,1-6.48,14.33,20.56,20.56,0,0,1-12.47,4.3,19.31,19.31,0,0,1-14.17-5.66,17.55,17.55,0,0,1-4.74-12.53c0-6.59,2.89-10.73,6.92-13.89a20.51,20.51,0,0,1,11.82-4c12.8,0,19.12,9.54,19.12,17.49M390.13,63.53c-1.63,1.58-3.59,5.39-3.59,11.93,0,8.5,4.63,17.49,12.25,17.49a7,7,0,0,0,4.8-2c2.29-2.45,4-7.24,4-12.8,0-3.49-1.26-10.4-5.23-14.22A10.66,10.66,0,0,0,395.58,61a8.15,8.15,0,0,0-5.45,2.56"/><path class="cls-1" d="M421.29,59.72c1.47,0,4.52.16,6.1.16,2.13,0,5.94-.27,7.25-.27s1.8.27,1.8.65c0,.6-.71,1-1.15,1.15-2.83.7-3.27,1.58-3.32,2.18-.38,2.83-.44,8.39-.44,16.39,0,3.54,0,7.63.22,9.54a2.75,2.75,0,0,0,2.07,2.12A27.08,27.08,0,0,0,438,92a19.71,19.71,0,0,0,3.92-.38,3.06,3.06,0,0,0,1.41-.6A23.36,23.36,0,0,0,447,86.47a2.36,2.36,0,0,1,1.47-1.09c.43,0,.49.65.21,1.47-.49,1.58-1.47,5.5-1.79,6.75a2.85,2.85,0,0,1-1.2.87c-.93,0-5.72-.38-16.73-.38-2.12,0-6.43.33-8.55.33-1,0-1.69-.22-1.69-.71s.55-.92,1.42-1.09c3-.54,3.38-1.47,3.59-4,.11-1.36.28-5.71.28-13.5,0-6.76,0-8.12-.06-9.92,0-2.18-.33-2.94-2.78-3.6-1-.27-1.52-.7-1.52-1.09,0-.59.71-.81,1.63-.81"/><path class="cls-1" d="M452.78,59.72c1.47,0,4.52.16,6.1.16,2.12,0,5.94-.27,7.25-.27s1.79.27,1.79.65c0,.6-.7,1-1.14,1.15-2.83.7-3.27,1.58-3.32,2.18C463.07,66.42,463,72,463,80c0,3.54,0,7.63.22,9.54a2.74,2.74,0,0,0,2.07,2.12,27,27,0,0,0,4.19.33,19.8,19.8,0,0,0,3.93-.38,3.1,3.1,0,0,0,1.41-.6,23,23,0,0,0,3.65-4.52A2.36,2.36,0,0,1,480,85.38c.44,0,.49.65.22,1.47-.49,1.58-1.47,5.5-1.8,6.75a2.73,2.73,0,0,1-1.2.87c-.92,0-5.72-.38-16.72-.38-2.13,0-6.43.33-8.55.33-1,0-1.69-.22-1.69-.71s.54-.92,1.41-1.09c3-.54,3.38-1.47,3.6-4,.11-1.36.27-5.71.27-13.5,0-6.76,0-8.12-.05-9.92-.06-2.18-.33-2.94-2.78-3.6-1-.27-1.53-.7-1.53-1.09,0-.59.71-.81,1.64-.81"/><path class="cls-1" d="M520.66,76.44a17.6,17.6,0,0,1-6.49,14.33,20.54,20.54,0,0,1-12.47,4.3,19.31,19.31,0,0,1-14.17-5.66,17.59,17.59,0,0,1-4.74-12.53c0-6.59,2.89-10.73,6.92-13.89a20.51,20.51,0,0,1,11.82-4c12.81,0,19.13,9.54,19.13,17.49M494.72,63.53c-1.63,1.58-3.59,5.39-3.59,11.93,0,8.5,4.63,17.49,12.26,17.49a7,7,0,0,0,4.79-2c2.29-2.45,4-7.24,4-12.8,0-3.49-1.25-10.4-5.23-14.22A10.63,10.63,0,0,0,500.17,61a8.17,8.17,0,0,0-5.45,2.56"/><path class="cls-1" d="M196.56,111.5a2.56,2.56,0,0,1,.7,1.14c0,.6.55,5.23.55,5.45,0,.82-.22,1.31-.49,1.31a2.07,2.07,0,0,1-1.69-1.31,9.32,9.32,0,0,0-2.23-3.87,6.43,6.43,0,0,0-4.58-1.69,5.45,5.45,0,0,0-5.23,5.34c0,2.89,2.23,4.69,7.19,7.68,7.9,4.74,8.23,8.5,8.23,11.12a9.8,9.8,0,0,1-5,8.12,16.47,16.47,0,0,1-7.74,2,19.78,19.78,0,0,1-8.17-1.42,4.91,4.91,0,0,1-1.52-1.53,26.3,26.3,0,0,1-1-6.15c0-.38.65-1.2.92-1.2.49,0,1.36,1.25,2.24,2.94,1.74,3.49,4.68,5.34,7.73,5.34,2,0,5.23-1.63,5.23-4.9,0-2.24-1.14-4.31-5.77-7.41-6.05-4-8.88-6.87-8.88-11.82a9.49,9.49,0,0,1,3.43-7.36c1.91-1.52,4.47-2.61,9-2.61a46.92,46.92,0,0,1,7,.87"/><path class="cls-1" d="M241.72,128.11a17.6,17.6,0,0,1-6.49,14.33,20.54,20.54,0,0,1-12.47,4.31,19.28,19.28,0,0,1-14.17-5.67,17.56,17.56,0,0,1-4.74-12.53c0-6.59,2.89-10.73,6.92-13.89a20.59,20.59,0,0,1,11.83-4c12.8,0,19.12,9.53,19.12,17.48M215.79,115.2c-1.64,1.58-3.6,5.4-3.6,11.93,0,8.5,4.63,17.49,12.26,17.49a7,7,0,0,0,4.79-2c2.29-2.46,4-7.25,4-12.81,0-3.48-1.25-10.4-5.23-14.22a10.63,10.63,0,0,0-6.76-2.94,8.16,8.16,0,0,0-5.44,2.56"/><path class="cls-1" d="M274.62,111.55a24.45,24.45,0,0,0,3.81.66c.39.05.77.76.77,1.36l.27,5.17c0,1.15-.33,2.24-1,2.24-.33,0-.82-.66-1.15-1.53a9,9,0,0,0-2.28-3.76,11.92,11.92,0,0,0-7.79-3.27c-8.56,0-11.94,6.6-11.94,14.93a21.32,21.32,0,0,0,1.86,9.32c2.94,5.88,7.24,7.84,11.44,7.84a11.5,11.5,0,0,0,4.95-1.14,11.66,11.66,0,0,0,4.53-4.8c.71-1.25,1.14-1.85,1.69-1.85s.54,1.53.38,2.13c-.33,1.41-1,3.54-1.36,4.41a4.45,4.45,0,0,1-2.07,1.85,25.68,25.68,0,0,1-9.37,1.64c-8.29,0-14-3.54-16.24-6.1a17.62,17.62,0,0,1-4.58-12.1,17,17,0,0,1,5.94-13.07c4.63-3.82,10.52-4.85,14.66-4.85a29.25,29.25,0,0,1,7.46.92"/><path class="cls-1" d="M289.11,117.49c-.16-2.61-.16-3.49-2.67-4.14-1.36-.38-1.74-.76-1.74-1.2s.87-.81,2-.81c1.69,0,4.57.21,6.37.21,2.67,0,4.85-.21,6.76-.21.92,0,1.85.27,1.85.81s-.87,1-1.8,1.2c-2.5.44-2.78,1.85-2.89,3.27-.05,1.09-.16,2.29-.16,10.95,0,8.34.06,10.24.16,11.82.28,3.32.6,3.81,3.49,4.63,1,.27,1.53.66,1.53,1.26s-1.15.76-1.8.76c-1.85-.06-5.5-.33-8.17-.27-1.58,0-3.76.16-5.78.16-1.41,0-1.85-.38-1.85-1,0-.38.49-.76,1.69-1.09,2.4-.6,2.83-1.91,2.94-4.14s.22-7.74.22-12.37c0-2.5,0-7.63-.11-9.86"/><path class="cls-1" d="M323.87,111.72c.54,1.19,1.52,4.19,2.07,5.77,3.05,8.66,6.59,18.14,7.79,21.08,1.74,4.36,3.1,5,4.68,5.51.93.27,1.47.65,1.47,1s-.6.87-1.8.87-5.93-.21-7.3-.21c-1.79,0-4.63.11-6,.11-1,0-1.75-.33-1.75-.88,0-.27.39-.71,1.42-1,2.12-.54,2.23-1.3,2.23-2.07,0-1-1-3.81-2.28-7.3a2.67,2.67,0,0,0-1-.92c-7.14-.06-8.72.16-9.32.16-.16,0-.49.38-.6.6-1.85,4.68-2.07,6.15-2.07,7.08,0,1.31.65,2,2.51,2.45,1.14.27,1.58.55,1.58,1.15,0,.38-.66.71-1.69.71s-2.35-.11-4.36-.11-4.41.21-5.23.21c-1.42,0-1.74-.38-1.74-.7s.16-.77,1.41-1.09c2.78-.71,3.38-1.91,4.91-5,1.36-2.56,7.13-17.65,9.31-22.77,0,0,.27-.71.33-.93a2.82,2.82,0,0,1,.43-.71c.66-.76,2.62-2.89,3-3.48a1.4,1.4,0,0,1,1-.71c.33,0,.55.05,1,1.09m-.71,18.85c-.77-2.4-2.94-8.28-3.82-10.52-.1-.43-.49-.22-.65.22-1,2.61-3.54,9.1-3.76,10.19a.51.51,0,0,0,.44.65c2.07-.05,5.88-.11,7.57-.05a.4.4,0,0,0,.22-.49"/><path class="cls-1" d="M344.29,111.39c1.47,0,4.53.16,6.1.16,2.13,0,5.94-.27,7.25-.27s1.8.27,1.8.66c0,.59-.71,1-1.15,1.14-2.83.71-3.27,1.58-3.32,2.18-.38,2.83-.44,8.39-.44,16.4,0,3.54,0,7.62.22,9.53a2.75,2.75,0,0,0,2.07,2.12,27.08,27.08,0,0,0,4.2.33,19.71,19.71,0,0,0,3.92-.38,3,3,0,0,0,1.42-.6,23.1,23.1,0,0,0,3.65-4.52,2.36,2.36,0,0,1,1.47-1.09c.43,0,.49.65.22,1.47-.49,1.58-1.48,5.5-1.8,6.76a2.94,2.94,0,0,1-1.2.87c-.93,0-5.72-.38-16.73-.38-2.12,0-6.42.32-8.55.32-1,0-1.69-.22-1.69-.71s.55-.92,1.42-1.09c3-.54,3.38-1.47,3.59-4,.11-1.36.28-5.72.28-13.51,0-6.76,0-8.12-.06-9.92,0-2.18-.32-2.94-2.78-3.59-1-.28-1.52-.71-1.52-1.09,0-.6.71-.82,1.63-.82"/><polygon class="cls-1" points="174.87 27.42 178.36 27.42 184.04 36.24 189.71 27.42 193.2 27.42 193.2 46.07 189.95 46.07 189.95 32.69 184.06 41.49 183.96 41.49 178.12 32.75 178.12 46.07 174.87 46.07 174.87 27.42"/><rect class="cls-1" x="198.19" y="27.42" width="3.25" height="18.65"/><polygon class="cls-1" points="206.45 27.42 209.48 27.42 219.45 40.31 219.45 27.42 222.7 27.42 222.7 46.07 219.96 46.07 209.7 32.8 209.7 46.07 206.45 46.07 206.45 27.42"/><rect class="cls-1" x="227.68" y="27.42" width="3.25" height="18.65"/><path class="cls-1" d="M242.5,46.34a11.75,11.75,0,0,1-4.13-.74,11.06,11.06,0,0,1-3.65-2.25l2-2.34a11.57,11.57,0,0,0,2.75,1.8,7.65,7.65,0,0,0,3.14.62,4,4,0,0,0,2.41-.64,2,2,0,0,0,.89-1.7V41a2.11,2.11,0,0,0-.17-.89,1.87,1.87,0,0,0-.64-.73,4.9,4.9,0,0,0-1.28-.64,18.29,18.29,0,0,0-2.13-.59A21.22,21.22,0,0,1,239,37.4a7.18,7.18,0,0,1-1.95-1.07,4.18,4.18,0,0,1-1.21-1.53,5.35,5.35,0,0,1-.41-2.19v0a5,5,0,0,1,1.78-3.9,6.29,6.29,0,0,1,2-1.11,7.75,7.75,0,0,1,2.55-.4,10.66,10.66,0,0,1,3.69.6,10.91,10.91,0,0,1,3.08,1.75L246.79,32a11.57,11.57,0,0,0-2.53-1.42,6.85,6.85,0,0,0-2.53-.49,3.53,3.53,0,0,0-2.24.63,2,2,0,0,0-.8,1.58v0a2.21,2.21,0,0,0,.19,1,1.81,1.81,0,0,0,.68.74,5.62,5.62,0,0,0,1.36.63c.58.19,1.31.4,2.2.61a21.83,21.83,0,0,1,2.61.83,6.52,6.52,0,0,1,1.88,1.1,4.51,4.51,0,0,1,1.14,1.52,4.87,4.87,0,0,1,.39,2v.06a5.5,5.5,0,0,1-.49,2.34,5,5,0,0,1-1.36,1.76,5.9,5.9,0,0,1-2.1,1.09,9.15,9.15,0,0,1-2.69.38"/><polygon class="cls-1" points="257.58 30.45 251.67 30.45 251.67 27.42 266.8 27.42 266.8 30.45 260.89 30.45 260.89 46.07 257.58 46.07 257.58 30.45"/><polygon class="cls-1" points="270.27 27.42 284.07 27.42 284.07 30.38 273.52 30.38 273.52 35.17 282.87 35.17 282.87 38.13 273.52 38.13 273.52 43.11 284.21 43.11 284.21 46.07 270.27 46.07 270.27 27.42"/><path class="cls-1" d="M288.12,27.42h8.32a9,9,0,0,1,3.11.49,6.32,6.32,0,0,1,2.27,1.37A5.44,5.44,0,0,1,303,31.07a6.16,6.16,0,0,1,.39,2.24v0a6.16,6.16,0,0,1-.33,2.07,5.39,5.39,0,0,1-2.32,2.82,6.92,6.92,0,0,1-1.8.76l5,7.06h-3.86l-4.6-6.5h-4.12v6.5h-3.25Zm8.07,9.24a4.33,4.33,0,0,0,2.8-.84,2.76,2.76,0,0,0,1-2.29v-.05a2.75,2.75,0,0,0-1-2.32,4.61,4.61,0,0,0-2.86-.79h-4.79v6.29Z"/><rect class="cls-1" x="307.58" y="27.42" width="3.25" height="18.65"/><path class="cls-1" d="M324.74,46.39a9.94,9.94,0,0,1-3.95-.76,9.37,9.37,0,0,1-3.06-2.06,9.49,9.49,0,0,1-2-3.06A9.62,9.62,0,0,1,315,36.8v-.06a9.62,9.62,0,0,1,.72-3.71,9.24,9.24,0,0,1,2-3.07,10.24,10.24,0,0,1,11-2.1,9.26,9.26,0,0,1,3.07,2.06,9.55,9.55,0,0,1,2,3,9.7,9.7,0,0,1,.72,3.72v.05a9.63,9.63,0,0,1-.72,3.72,9.4,9.4,0,0,1-2,3.07,9.71,9.71,0,0,1-7,2.86m.05-3a6,6,0,0,0,2.53-.52,6.16,6.16,0,0,0,2-1.41,6.67,6.67,0,0,0,1.29-2.09,7,7,0,0,0,.46-2.56v-.06a7.14,7.14,0,0,0-.46-2.57,6.41,6.41,0,0,0-1.3-2.1,6.34,6.34,0,0,0-2-1.43,6.41,6.41,0,0,0-5.08,0,5.86,5.86,0,0,0-2,1.41,6.56,6.56,0,0,0-1.29,2.09,7,7,0,0,0-.47,2.56v.05a7.16,7.16,0,0,0,.47,2.58,6.27,6.27,0,0,0,3.3,3.53,6.16,6.16,0,0,0,2.55.53"/><path class="cls-1" d="M346.48,27.42h7a11.08,11.08,0,0,1,4,.7,9.6,9.6,0,0,1,3.14,2,8.77,8.77,0,0,1,2,3,9.23,9.23,0,0,1,.72,3.66v.05a9.36,9.36,0,0,1-.72,3.68,8.72,8.72,0,0,1-2,3,9.62,9.62,0,0,1-3.14,2,10.87,10.87,0,0,1-4,.72h-7Zm6.93,15.69a7.34,7.34,0,0,0,2.67-.46,5.85,5.85,0,0,0,3.34-3.32,6.78,6.78,0,0,0,.47-2.53v-.06a6.87,6.87,0,0,0-.47-2.54,5.93,5.93,0,0,0-1.31-2,6,6,0,0,0-2-1.32,7.13,7.13,0,0,0-2.67-.49h-3.68V43.11Z"/><polygon class="cls-1" points="367.32 27.42 381.12 27.42 381.12 30.38 370.57 30.38 370.57 35.17 379.93 35.17 379.93 38.13 370.57 38.13 370.57 43.11 381.26 43.11 381.26 46.07 367.32 46.07 367.32 27.42"/><path class="cls-2" d="M100.23,147.77c-3.5,1.93-1.67,1.22-9.59-1.9a38.21,38.21,0,0,0-5.78-2.14c-1.75-.3-2.9-.53-8.53-.53,0,0-8.49-.56-13.32-3.2a29.78,29.78,0,0,1-6.56-4.88c-.85-.79-3.78-3.11-3.11-3.72s2.89,1,4.8,1.93a38,38,0,0,0,5.28,2.11c4.21,1.18,9.82,2.75,10,2.15s-6.4-2.11-9.88-3.51a29.79,29.79,0,0,1-11.46-8.16c-4.72-5.25-5.33-13.78-5.33-13.78s.38-.76.84,0a29.6,29.6,0,0,0,8.75,11.42s3,1.94,7,4.52c0,0,1.75.23-1.37-2.05s-3.73-2.18-9.64-9a55.91,55.91,0,0,1-5.19-8.92c-2.54-5.44-6.67-6-5.57-6.72s6.47,2.43,9.82,6.09a41.7,41.7,0,0,1,5.85,9s1.45.76-.15-2-2.35-5.26-6.84-9.67c0,0-2.58-1.78-5-10.38a22.77,22.77,0,0,0-1.78-6.62c-1.34-2.72-2.26-2.59-2-3,.5-.92,4.11,0,8.75,11.11,0,0,2.92,7.78,3.73,7.54.59-.17,0-1-.84-2.84-1-2.18-1.79-4.56-2-5.25-1.57-4.47-3.42-6.48-1.32-14.24.55-2,2-4.23.93-9.93-.12-.66-1.27-2.72-.92-3.06.7-.7,2.76,1.4,3.3,6.12.42,3.71.32,10.89.51,15.75.07,1.73.41,4.65.85,4.49s.16-1.89.12-3.84c0-1.75-.44-16.24,1-20.85,1.1-3.5,3.12-5.81,5.59-8.39a14.39,14.39,0,0,0,2.37-3.55c.31-.91,1.33-.62,1.25,0s.2,2.12-3.06,7.77C60.38,67.73,60,72,58.56,76.41c-.81,2.54-1.65,5.49-1.09,5.45S61.15,71,61.57,69.43C64,60.17,71.88,53.51,74.2,54.59c.43.2-.26.89-1.22,1.45a10.55,10.55,0,0,0-4,6,33.49,33.49,0,0,1-4.78,10.73s-.23.83.3.6,5-7.53,7.78-9.74,8.43-4,10.74-6.16c1.68-1.57,2.8-1.15,1.73.37S73.36,70.65,67.65,73.09a19.38,19.38,0,0,0-7.19,7.33c-.23.45-.77,1.41-.65,1.5.42.33.38.31,1.45-1.52s4.18-5.71,7.23-6.63a27.89,27.89,0,0,0,5.77-2,9.45,9.45,0,0,0,3.29-3.17c.72-1.11,1.77-1.48,1.48,0-.11.58-.76,3.32-4.37,6.46-1.93,1.68-3.78,1.52-9.27,5.09a31,31,0,0,0-4.93,4.46c-2.08,2.49-3.92,6.8-3.26,7.3s1-1.7,2.47-4.24A19.91,19.91,0,0,1,69,79.48l3.58-2s.91-.23.46.68-7.78,8.64-9.54,10.24-6.76,7-6.42,14.84c.1,2.39.74,5.82,1.34,5.68s.07-.44-.08-1.65a17,17,0,0,1,1.57-10.31c2.24-5,4.46-7.19,4.77-5.76.13.6-1.41.58-1.34,5.56,0,3.25-.34,4.65-1.22,8.94-.53,2.54-1.31,5.27-.77,9.16.38,2.79,2.24,9.17,3.13,8.64.48-.27-.85-2.49-1.15-3.82-.62-2.7,0-5,.22-8.77s-.56-4.5-.56-4.5,0-1.14,1.19-.3,3.15,3.72,3.76,11c0,0,.44,8,3.92,13.66,2.62,4.28,7.9,7.53,8.21,7,.4-.67-3.93-2.07-6.74-7.16-.71-1.27-1.49-4.09-2-5.44-.89-2.27.32-2.92.66-2.09,1.49,3.7,3.64,3.79,6.46,7.22s6.25,8.4,8.69,9.92,9.3,5.19,9.3,5.19,2.28,1.07,2.89,1.45,1.2.75.91.91"/><path class="cls-3" d="M139.5,135.88a10.54,10.54,0,0,1-4.14,1.18,30.46,30.46,0,0,1-5.06.45c-2.46-.08-3.4.74-4.05,1.39s-2.71,2.45-2.71,2.45l1.18.17a10.73,10.73,0,0,1,5.35-1.94,28.82,28.82,0,0,0,4.55-.5c2.59-.55,2.61-.76,2.19-.22a6.52,6.52,0,0,1-3.77,1.49c-1.85.17-3.45.32-4.19.44a19.73,19.73,0,0,0-3.28,1.08s2.17.65,2.86.73a11.63,11.63,0,0,0,8.8-2.26,13,13,0,0,1,1.2-1.34c1.53-1.54,2.31-3.69,1.07-3.12"/><path class="cls-3" d="M151.16,121.46a5.68,5.68,0,0,0-1.54.63c-2.55.68-3,2.7-4.17,4-.59.65-1.65,1.48-4.33,2.57-2.42,1-2.16.9-2.21.91a4.4,4.4,0,0,0-1.08.75l1,0a10.5,10.5,0,0,0,4.4-.81,8,8,0,0,0,3.94-3.17c.58-.84,1.38-2.47,1.39-1.42,0,2.76-4.5,5.85-6.32,6.06-.59.06-1.42.24-3.2.33a6.15,6.15,0,0,1-3-.68h0c.06-.45,2.85-2.06,4.35-2.68a13,13,0,0,0,4.31-2.77,17.19,17.19,0,0,0,1.87-2.51c.69-1,1.17-2.37,1.82-3.11,2.19-2.53,1.74-8.28.67-7.8-.46.22.4,2-1.21,3.57a5.29,5.29,0,0,1-3.31,1.13c-2.42.31-6,6.2-6.46,7.16-.33.68-.89,1.17-1.34,1.08s1.05-5.08,1.38-5.9a14.45,14.45,0,0,0,.58-3.36,1.09,1.09,0,0,0-.92-1.31,2.4,2.4,0,0,1-1.43-1.41c-1.62,2.76-.63,4.8-.46,6.77a25,25,0,0,1-.63,5.56c2.19,1.73.83,3.67.05,4.41-1.71,1.63-4.1.08-4.15.47a19.25,19.25,0,0,1-3.1,6.87l4.49-.44s.36.24-.1-.67a2.68,2.68,0,0,1,.66-3.44c1.4-1,3.69-.19,3.69-.19a7.65,7.65,0,0,0,6.08.68,10.14,10.14,0,0,0,5.14-3.81c1.62-2.26,1.44-4.11,2.27-5.41.49-.77,1.38-2.21.85-2.05m-12.75,4.31a21.13,21.13,0,0,0,3.49-3.51c.48-.59,2.26-3.7,4.58-4.33.25-.07,3.13-.69.33.74-2.29,1.17-4.07,4.19-5.6,6.13a9.76,9.76,0,0,1-2.55,2.08s-1,.42-1.13.19.3-.88.88-1.3"/><path class="cls-3" d="M135.94,111a3.21,3.21,0,0,1-.92-1.14c-1.47-3.75-1.76-3.55-2-3a10.41,10.41,0,0,0-1.1,3.43c0,.68-.05,2.1,0,3.76a10.3,10.3,0,0,1-.68,4.5,5.55,5.55,0,0,0,0,4,22.93,22.93,0,0,0,.9,2.34l1.08-.24a6.57,6.57,0,0,1,1.26.1,23.8,23.8,0,0,0,.51-2.85,19.45,19.45,0,0,0-.29-3.57,10.41,10.41,0,0,1,0-4.71c.45-2.09,1.18-2.62,1.18-2.62"/><path class="cls-3" d="M143.58,110.51c-1.53,0-2.37,2.72-2.37,2.72s-.11.41-1,.91-.72,1.37-.78,2.72a11.68,11.68,0,0,1-1.21,4.15c-.2.53-.12.57,0,.6.44.11,1.86-2.5,2.72-3.66a9.26,9.26,0,0,1,2.83-2.19l0-.05c-2.41-2.62-.27-4.35.33-4.73s.93-.49-.59-.47"/><path class="cls-3" d="M141.47,110.54c.28-.13.06-.86.06-.86a11.89,11.89,0,0,0-.28-2.11,13.74,13.74,0,0,0-1.72-3.45,18.53,18.53,0,0,1-1.95-3.7c-.51-1.52.07-4.35.13-4.7s-.27-.33-.56-.69-1.28-1.49-1.71-1.2.1.54,0,2.22c0,.4-.17.87-.24,1.57s-.55,3.76.38,5.72c1.07,2.28,2,2.37,3.28,3.27,2.2,1.58,2.17,4.14,2.64,3.93"/><path class="cls-3" d="M153.83,89.41c-.38-.18-1.21,1.16-1.47,1.41s-1.44,1.33-4,3.34c-2,1.57-2.71,1.4-4.64,6.14a20.62,20.62,0,0,0-1.36,9.6l.26-.05a25,25,0,0,0,1.19-3.28,31.53,31.53,0,0,1,2-5.42,23.11,23.11,0,0,1,6.06-7.5c1.2-1.16.94-.57.94-.57a48.93,48.93,0,0,1-3.58,5,14.24,14.24,0,0,0-2.48,3.92c-.75,1.46-1.87,4.59-1.87,4.59l-.94,2.94,3-1.82a25.37,25.37,0,0,0,3.73-4.34,16.88,16.88,0,0,0,3-5.47c.29-1.34,1.42-7.88.15-8.48"/><path class="cls-3" d="M140.15,90.35c-1-1-1.31-1.58-1.75-1.26-.59.44.17,1.82.14,2.93s0,3-.07,4-.64,2.63,0,4.25a29.19,29.19,0,0,0,2,3.48,28.54,28.54,0,0,1,1.19,3,45.6,45.6,0,0,1,.34-5.73,18.78,18.78,0,0,0,.14-6.4,10.13,10.13,0,0,0-2-4.26"/><path class="cls-3" d="M148,89.58c1.52.73,1,3,1,3a14.69,14.69,0,0,0,.91-2.78c0-.66.19-3.31-.54-3.64-.19-.1-1.2,1.28-1.2,1.28a4.81,4.81,0,0,0-1.34,1.85,2.58,2.58,0,0,1,1.17.33"/><path class="cls-3" d="M145,83.76c.26.29,1.07-1.76,1.42-3.6a19.47,19.47,0,0,0,.25-2.92c0-.6-.2-1.63.05-1.68s.29.51.4,1.39a10.91,10.91,0,0,1,0,2.22,8.17,8.17,0,0,1-.49,2.72,16.31,16.31,0,0,1-1,2.39c-.21.34-.84,1.63-.84,1.63a5.81,5.81,0,0,0-.36,2c0,.93.08,2.19.08,2.19a2.76,2.76,0,0,1,1.68-.86s0-1.86,0-2.35a36.92,36.92,0,0,1,1.1-4.71,13.32,13.32,0,0,0,.27-6.94c-.17-.81.51-2.91-.23-3.3-.9-.48-1.22.76-1.87,3.59-.19.86.07,3.18-.13,5.65-.11,1.36-.49,2.49-.36,2.63"/><path class="cls-4" d="M145,83.76l-.07.12.07-.12"/><path class="cls-3" d="M139,76.8c.11.86.62,1.47,1.53,3.35a15.44,15.44,0,0,1,.75,2.58,10.16,10.16,0,0,1,.18,1.26c0,.17.07,1.33.07,1.33a26,26,0,0,1-3.81-2c-1.14-.86-2.44-2.06-3.27-2.78s-3.17-3.59-3.14-5.76l-1-1a9,9,0,0,0,2.76,8A19.4,19.4,0,0,0,137.81,85c2.52,1.23,3,2.63,4,4.92A15.47,15.47,0,0,1,143.1,94a23.72,23.72,0,0,1,.17,3.19c-.05.86-.47,3.81-.47,3.81s1-4.41,3.62-6.24c0,0-3.54.14-2.65-4L143.65,89a15.56,15.56,0,0,1,.41-3.71,31.62,31.62,0,0,0,.77-6.17,27,27,0,0,0-.18-4.08,52.92,52.92,0,0,0-1.21-6.33,16.68,16.68,0,0,0-.74-2.39c-.13-.34-.3-1.46-.67-1.49-.22,0-.79,1.44-.79,1.44s-.56,1.49-.67,1.89a43.78,43.78,0,0,0-1.24,5.26c-.09.52-.18,1.94-.24,2.1A5.68,5.68,0,0,0,139,76.8m3.06-6.47a14.87,14.87,0,0,1-.1,1.6c0,.09-.18,1.2.74,5.32a24.35,24.35,0,0,1,.39,6c0,.84-.05,1,0,1.51s-.43,1-.57-.33a47.58,47.58,0,0,0-.7-7c-1.05-4.3.18-8.64.28-7.1"/><path class="cls-3" d="M140.64,89a7.81,7.81,0,0,0-.76-1.32c-.77-1-1-1.48-4-3.06s-4.1-3.07-5.76-5.37c-.51-.71-2.07-1.33-2.35-.86s1,2.11,1.43,3a6.77,6.77,0,0,0,2.61,3.22,11.91,11.91,0,0,0,4.58,1.92A20.29,20.29,0,0,1,140.64,89"/><path class="cls-3" d="M132,75.27a18.05,18.05,0,0,0,2.34,3.8,16.25,16.25,0,0,0,6.31,4.75,12.08,12.08,0,0,0-1.33-4c-2.1-3.61-7.33-4.64-7.33-4.64s-.08-.15,0,.1"/><path class="cls-3" d="M138.13,76.71c.32-.17.41-2.64.41-2.64l-.33-.37-1.7-2.26a7.35,7.35,0,0,1-1.3-1.92c-.28-.54-.5-.83-.27-1,.4-.32.87.54,1.28,1.11.62.86,2.35,3.34,2.35,3.34l.5-2.72-4.25-3.33c-.07.6-1.1.82-1.1.82-.82,3.85,3.43,9.5,4.41,9"/><path class="cls-3" d="M138.4,77.14l.06,0-.06,0"/><path class="cls-3" d="M131.07,69.91a3.59,3.59,0,0,1-2.18.59l.67,1.08.26.44s1.44,2,2.29,2.29a21.51,21.51,0,0,1,3,1c1.5.69-1.34-1.32-2.07-5.39l-.22-1.83-.91-.18a2.5,2.5,0,0,1-.85,2"/><path class="cls-3" d="M113.32,66.82a13.39,13.39,0,0,0,8.32,3.91,18.39,18.39,0,0,0,2.51-.39,1.36,1.36,0,0,1,1.29-1.21L122.76,69a12.43,12.43,0,0,1-4.23-.61c-.74-.34-2.46-1.42-3-1.72s-.5-1.07.4-.7c.6.24,2,1.23,3.53,1.91a6.82,6.82,0,0,0,3.61.42c.06-.23-2-.71-3.38-1.59a11.17,11.17,0,0,1-2.48-2.44s-2.88,0-3.74-.17c-1.69-.26-2.11.61-.19,2.68"/><path class="cls-3" d="M132.78,67.19h-.05s.05,0,.05,0"/><path class="cls-3" d="M123.89,59.26c.1.76,1.38,2.06,1.55,2.24s1.36,1.4,1.89,2,1.32,1.65,1.32,1.65l.72-.09a7.14,7.14,0,0,0-1-2.33,55.16,55.16,0,0,0-2.67-5c-.69-.9.26-1,.65-.55.8,1,2.39,2.52,3.39,7.09.36,1.67.66,1,.66,1a5.76,5.76,0,0,0,.31-1.74c.33-4.5-.47-4.89-.76-5.45a6.28,6.28,0,0,0-2.91-2.42c-1-.39-3-1-4.29-1.44s-.32.79.14,1.81a11.54,11.54,0,0,1,1,3.21"/><path class="cls-3" d="M118.93,65.12a7.16,7.16,0,0,0,4.54,2.43c2.71.49,3,.32,3,.32s.9-.15.2-.75a9.75,9.75,0,0,0-2.6-1.25,12.1,12.1,0,0,1-2.21-1.07c-.45-.29-1.54-1.07-2.48-1.85-.77-.64-1.75-1.47-1.91-2.24s.51-.87,1.87.56a13.91,13.91,0,0,0,1.8,1.63,27.89,27.89,0,0,0,3.47,2.21,21.62,21.62,0,0,0,2.64,1.07s.56-.63.79-.68a7.93,7.93,0,0,0-2.29-2.76A11.19,11.19,0,0,1,123.36,60a34.35,34.35,0,0,1-4.23-1c-1.89-.58-4-2.62-4.14-1.72a8.9,8.9,0,0,0,1.15,4,15.46,15.46,0,0,0,2.79,3.8"/><path class="cls-3" d="M128.44,71.3a1.81,1.81,0,1,1-1.76-1.85,1.81,1.81,0,0,1,1.76,1.85"/><path class="cls-3" d="M131.2,67.91a1.94,1.94,0,1,1-1.88-2,1.93,1.93,0,0,1,1.88,2"/><path class="cls-3" d="M148.35,92a1.94,1.94,0,1,1-1.88-2,1.93,1.93,0,0,1,1.88,2"/><path class="cls-3" d="M147.63,113.51a1.94,1.94,0,1,1-1.88-2,1.93,1.93,0,0,1,1.88,2"/><path class="cls-3" d="M137,134.54a1.94,1.94,0,1,1-1.88-2,1.93,1.93,0,0,1,1.88,2"/><path class="cls-3" d="M140.55,111.73a1.75,1.75,0,1,1-1.69-1.78,1.73,1.73,0,0,1,1.69,1.78"/><path class="cls-3" d="M135.34,127.45a1.94,1.94,0,1,1-1.88-2,1.93,1.93,0,0,1,1.88,2"/><path class="cls-3" d="M134.83,65.44a1.81,1.81,0,1,1-1.75-1.85,1.79,1.79,0,0,1,1.75,1.85"/><path class="cls-3" d="M131.32,144.11a22.24,22.24,0,0,1-3.25-.84,14.19,14.19,0,0,0-4.69-.74c-1.79,0-4.82.52-6.37.66-1.13.1-.4-1-.18-1.43,1.23-2.58,4-6.87,5.42-9.23.85-1.37,2.43-4.18,2.07-4.61-.17-.2-3.63,1.44-4.54,2.19a20.77,20.77,0,0,0-7.41,11.14,3.29,3.29,0,0,1-1.74,1.9l-.19,0c-2.17.4-5.44.93-6.73,1.35-.69.22-.2.34.6.77a6.15,6.15,0,0,0,1.84.94c.74.05,5.22-.65,6.45-.4a24.74,24.74,0,0,0,15.08.29s2-.79,3.17-1.29.47-.74.47-.74m-16.63-3.45c.43-.89,1.42-3.3,1.89-4.24a25.57,25.57,0,0,1,2.4-3.57c.39-.52,3.19-2.87,2.73-2.22-.31.44-.72.71-1.3,1.38s-.66.77-1.3,1.61a29.68,29.68,0,0,0-1.76,2.88c-.33.65-.83,1.73-1.29,2.63a21.9,21.9,0,0,1-.93,2c-.24.41-.43,1.1-.9,1.16,0,0-.2-.29.46-1.67m11.56,4c-.52.4-4.35.6-8.68.47a5.22,5.22,0,0,1-2-.53h0c1.51.06,4.54-.08,5-.13a26.3,26.3,0,0,1,5.42-.12c.2,0,.8-.09.28.31"/><path class="cls-3" d="M118.25,141.37c-.17.32-1.3,1.31.15,1a18.46,18.46,0,0,0,3.42-.79c1.48-.6,2.42-1.9,3.57-3a19.93,19.93,0,0,0,3.77-5.77c1-3.55,2.25-8.24.28-8.17-.5,0-1.69,2.48-2.35,3.41-.45.64-2.45,2.72-2.92,3.34a94.85,94.85,0,0,0-5.92,10m7.94-8.11c.33-.66.78-1.44,1.27-2.32.83-1.49,1-2.69,1.36-2.45s0,.95-.46,2.25a28,28,0,0,1-1.62,3.24,45.3,45.3,0,0,1-3.86,5.49c-.32.41-2.21,1.8-2.52,1.59s1.16-1.05,2.18-2.35c0,0,1.3-1.74,1.89-2.66.95-1.49,1.52-2.32,1.76-2.79"/><path class="cls-3" d="M92.39,147.65c-1.39.67-13.39,3.79-11.31,4.16.31.05,5.38-.82,6.52,1.57,0,0,7.54-3.57,8-4,.87-.75-2.3-2.18-3.23-1.74"/><path class="cls-2" d="M105.45,146.43c-1.1-.57-1.32-.74-2.18-1.19a4.43,4.43,0,0,0-1.28-.44,6,6,0,0,0-1.9.18c-1,.25-2,.6-1.61,1a21.12,21.12,0,0,0,2.31,1.39c1.91,1.1,9.18,5.86,9.18,5.86,1.14-2.38,5.89-1.5,6.19-1.55,2-.34-6-2.69-10.71-5.21"/><path class="cls-3" d="M80.17,153c0-.5.91-1,3.63-.78,1.8.16,3,.54,3,1.51,0,.37-.36,1.12-3.93,1-1.69,0-2.67-1.18-2.67-1.78"/><path class="cls-2" d="M117.32,152.8c0-.5-1.42-1-3.64-.8-1.8.13-2.84.52-3,1.52,0,.37.36,1.13,3.93,1,1.68,0,2.67-1.18,2.67-1.77"/><polygon class="cls-5" points="97.67 79.31 103.35 95.98 120.91 96.04 106.84 106.49 112.17 123.22 97.84 113.07 83.61 123.33 88.84 106.56 74.67 96.2 92.2 96.04 97.67 79.31"/><polygon class="cls-1" points="577.92 159.53 581.41 159.53 587.08 168.35 592.76 159.53 596.25 159.53 596.25 178.18 593 178.18 593 164.8 587.11 173.6 587 173.6 581.17 164.85 581.17 178.18 577.92 178.18 577.92 159.53"/><path class="cls-1" d="M610,178.5a9.94,9.94,0,0,1-4-.76,9.25,9.25,0,0,1-3.06-2.07,9.44,9.44,0,0,1-2-3,9.62,9.62,0,0,1-.72-3.71v-.06a9.7,9.7,0,0,1,.72-3.72,9.46,9.46,0,0,1,2-3.06,9.71,9.71,0,0,1,7-2.86,9.89,9.89,0,0,1,3.94.76A9.16,9.16,0,0,1,617,162a9.55,9.55,0,0,1,2,3.05,9.67,9.67,0,0,1,.72,3.72v0a9.63,9.63,0,0,1-.72,3.72,9.35,9.35,0,0,1-2,3.06,9.66,9.66,0,0,1-7,2.87m0-3a6,6,0,0,0,4.51-1.93,6.61,6.61,0,0,0,1.29-2.1,7,7,0,0,0,.46-2.55v-.06a7.14,7.14,0,0,0-.46-2.57,6.25,6.25,0,0,0-1.3-2.1,6.34,6.34,0,0,0-2-1.43,5.93,5.93,0,0,0-2.54-.53,6.07,6.07,0,0,0-2.54.52,5.73,5.73,0,0,0-2,1.41,6.45,6.45,0,0,0-1.29,2.09,7,7,0,0,0-.46,2.56v0a7.06,7.06,0,0,0,.46,2.57,6.25,6.25,0,0,0,3.3,3.54,6.16,6.16,0,0,0,2.55.53"/><polygon class="cls-1" points="628.28 162.56 622.37 162.56 622.37 159.53 637.5 159.53 637.5 162.56 631.59 162.56 631.59 178.18 628.28 178.18 628.28 162.56"/><polygon class="cls-1" points="640.97 159.53 654.77 159.53 654.77 162.48 644.22 162.48 644.22 167.28 653.57 167.28 653.57 170.24 644.22 170.24 644.22 175.22 654.9 175.22 654.9 178.18 640.97 178.18 640.97 159.53"/><polygon class="cls-1" points="658.82 159.53 661.85 159.53 671.82 172.42 671.82 159.53 675.08 159.53 675.08 178.18 672.34 178.18 662.07 164.91 662.07 178.18 658.82 178.18 658.82 159.53"/><path class="cls-1" d="M688.77,178.5a9.89,9.89,0,0,1-3.94-.76,9.34,9.34,0,0,1-5.06-5.12,9.62,9.62,0,0,1-.72-3.71v-.06a9.7,9.7,0,0,1,.72-3.72,9.43,9.43,0,0,1,2-3.06,9.64,9.64,0,0,1,3.09-2.09,9.77,9.77,0,0,1,4-.77,9.92,9.92,0,0,1,3.94.76,9.22,9.22,0,0,1,3.06,2.06,9.39,9.39,0,0,1,2,3.05,9.67,9.67,0,0,1,.72,3.72v0a9.63,9.63,0,0,1-.72,3.72,9.33,9.33,0,0,1-2,3.06,9.83,9.83,0,0,1-3.09,2.1,9.94,9.94,0,0,1-4,.77m.06-3a6.07,6.07,0,0,0,4.51-1.93,6.76,6.76,0,0,0,1.28-2.1,7,7,0,0,0,.47-2.55v-.06a7.14,7.14,0,0,0-.47-2.57,6.25,6.25,0,0,0-1.3-2.1,6.18,6.18,0,0,0-2-1.43,6.41,6.41,0,0,0-5.08,0,5.87,5.87,0,0,0-2,1.41,6.26,6.26,0,0,0-1.28,2.09,7,7,0,0,0-.47,2.56v0a7.07,7.07,0,0,0,.47,2.57,6.37,6.37,0,0,0,1.29,2.11,6.5,6.5,0,0,0,2,1.43,6.16,6.16,0,0,0,2.55.53"/><polygon class="cls-1" points="702.52 159.53 705.55 159.53 715.53 172.42 715.53 159.53 718.78 159.53 718.78 178.18 716.04 178.18 705.77 164.91 705.77 178.18 702.52 178.18 702.52 159.53"/><path class="cls-1" d="M723.58,159.53h6.95a11,11,0,0,1,4,.7,9.54,9.54,0,0,1,3.15,2,9,9,0,0,1,2,2.94,9.28,9.28,0,0,1,.72,3.67v0a9.36,9.36,0,0,1-.72,3.68,8.83,8.83,0,0,1-2,3,9.73,9.73,0,0,1-3.15,2,10.83,10.83,0,0,1-4,.72h-6.95Zm6.92,15.69a7.13,7.13,0,0,0,2.67-.47,5.7,5.7,0,0,0,3.34-3.32,6.69,6.69,0,0,0,.47-2.52v-.06a6.87,6.87,0,0,0-.47-2.54,5.9,5.9,0,0,0-1.3-2,6,6,0,0,0-2-1.32,6.94,6.94,0,0,0-2.67-.49h-3.67v12.74Z"/><polygon class="cls-1" points="744.41 159.53 758.22 159.53 758.22 162.48 747.67 162.48 747.67 167.28 757.02 167.28 757.02 170.24 747.67 170.24 747.67 175.22 758.35 175.22 758.35 178.18 744.41 178.18 744.41 159.53"/><polygon class="cls-1" points="762.27 159.53 765.52 159.53 765.52 167.28 774.47 167.28 774.47 159.53 777.73 159.53 777.73 178.18 774.47 178.18 774.47 170.32 765.52 170.32 765.52 178.18 762.27 178.18 762.27 159.53"/><path class="cls-1" d="M789.13,159.39h3l8.21,18.79h-3.47l-1.89-4.5H786.2l-1.92,4.5h-3.36Zm4.69,11.38-3.22-7.46-3.2,7.46Z"/><path class="cls-1" d="M605.89,59.72c2.94-.22,3.7-.44,4.41-.82.44-.27.71-.49.93-.49s.82.71.6,1.47a37.76,37.76,0,0,0-1.09,6.37c0,.5-.38,1.58-1.09,1.58-.38,0-.76-.27-1-1.68-.66-3.27-1.31-3.87-3.71-3.87a60.29,60.29,0,0,0-6.16.27.63.63,0,0,0-.54.65c0,2.51-.11,5.67-.11,10.35,0,6.27.11,12.37.33,15.42.11,1.42.6,2.67,4.41,3.43a1.68,1.68,0,0,1,1.25,1.15c0,.43-.87.76-1.47.76-.43,0-8-.22-9-.22-1.19,0-6.1.33-7.08.33s-1.74-.22-1.74-.65c0-.6.71-1.09,1.3-1.26,3.38-.87,3.71-1.47,3.93-5.17.22-3.22.49-14,.49-18.09,0-3.1-.06-5.34-.06-6.26a.77.77,0,0,0-.65-.77c-1-.16-4.52-.21-5.88-.21a6.25,6.25,0,0,0-2.51,1.25,24.54,24.54,0,0,0-1.91,2.89c-.7,1.09-1,1.63-1.25,1.63-.65,0-.93-.71-.93-1.25,0-1,.93-4.85,1-7.41,0-.16.49-1.2.93-1.2s.7.49.92.87a4.41,4.41,0,0,0,2.45.76c1,.11,9.65.33,11.72.33,3.16,0,9.91-.05,11.49-.16"/><path class="cls-1" d="M634.44,59.88a29.06,29.06,0,0,0,4.73-.43c.22-.06.66.38.71.76.06.22.06,5.06.06,6.15,0,.77-.44,1.58-.93,1.58s-1-.81-1.09-1.41c-.7-3.11-2.39-4-3.43-4.25A40.53,40.53,0,0,0,627,61.9c-.22,0-.6.21-.65,1.58s-.22,7.62-.22,11.6a.75.75,0,0,0,.65.6h4.69c3.27,0,3-.27,4.09-2.56.38-.82.76-1.53,1.3-1.53s.66.93.6,1.69c-.11,1.47-.21,2.45-.21,3.65a31.91,31.91,0,0,0,.21,3.87c.11,1-.27,1.69-.76,1.69s-.93-.65-1.09-1.25c-.71-2.29-1.58-2.84-3.16-3-1.74-.16-3.7-.16-5.5-.16-.22,0-.82.65-.82.76-.16,1.74-.11,5.5-.05,7.08a41.39,41.39,0,0,0,.1,4.42,2,2,0,0,0,1.26,1.41,25.47,25.47,0,0,0,4.14.27c2.07,0,3.49.06,4.9-.54a9.29,9.29,0,0,0,4.2-4c.87-1.47,1.41-2.07,1.9-2.07.66,0,.49,1.25.49,1.63a58.93,58.93,0,0,1-2.12,6.54c-.22.49-1.25.76-1.53.76-.6,0-16.61-.22-18.36-.22-4,0-4.35.28-6.21.28-1,0-2-.17-2-.71s.71-1,1.69-1.2c2.78-.65,3.32-1.31,3.54-4.25.17-2.23.44-5.34.44-12,0-6.43.05-9.53-.06-11.11-.11-1.8-.49-3.05-2.83-3.44-1.14-.21-1.8-.43-1.8-1.09,0-.49,1-.81,1.75-.81,2.56,0,8.17.16,10.67.16Z"/><path class="cls-1" d="M647.46,59.72c1.3,0,4.3.16,6,.16s5-.16,6.32-.16c1.14,0,1.85.32,1.85.81s-1,.88-1.42,1c-2.18.65-2.56.81-2.72,3.48-.11,2.07-.06,7.85-.06,11,0,.33.11.38.39.38a2.34,2.34,0,0,0,1-.49c2-1.41,8-7.51,11.05-11.38,1.15-1.37,1.37-2.29-1.14-2.84-.71-.16-1.42-.49-1.42-.92s.44-.82,1.42-.82h2.4c4.46,0,7.35-.33,8.88-.33,1.14,0,1.63.28,1.63.71s-.87.93-2.18,1.15c-3.21.54-5.39,2.56-7.3,4.08a93.46,93.46,0,0,0-7.9,7.63c-.16.11-.1.43-.05.54,1.25,2.13,10.24,13.08,13.35,16.35a7.61,7.61,0,0,0,4.85,2.61,1.78,1.78,0,0,1,1.19,1c0,.55-1.09.93-1.68.93-1.48,0-8.34-.44-9.87-.44-2,0-3.65.17-4.84.17-.93,0-1.31-.38-1.31-.87,0-.33.54-.6,2.67-1.42.22-.11.05-.66-.06-.82-1.74-2.45-6.48-9-8.77-11.66-1.41-1.63-1.58-1.9-1.85-1.9s-.44.11-.44,1.36c0,5.77.22,9.1.28,11.06,0,.76.32,1.58,2.56,2.18,1,.27,1.63.65,1.63,1.14s-1,.87-1.85.87c-1.2,0-5.12-.11-6.81-.11s-4.85.22-6.59.22c-.82,0-1.53-.43-1.53-.82s.44-.81,1.58-1.09c2.73-.59,3-1.47,3.27-4.68.16-2.51.11-6.27.11-12.1,0-8.6-.11-7.89-.16-9.86-.06-2.88-.44-3.48-2.51-4.08-1.47-.44-1.63-.87-1.63-1.15,0-.49.87-.81,1.69-.81"/><path class="cls-1" d="M721.43,76.44A17.6,17.6,0,0,1,715,90.77a20.56,20.56,0,0,1-12.47,4.3,19.31,19.31,0,0,1-14.17-5.66,17.59,17.59,0,0,1-4.74-12.53c0-6.59,2.89-10.73,6.92-13.89a20.51,20.51,0,0,1,11.82-4c12.8,0,19.12,9.54,19.12,17.49M695.5,63.53c-1.63,1.58-3.59,5.39-3.59,11.93,0,8.5,4.63,17.49,12.25,17.49a7,7,0,0,0,4.8-2c2.29-2.45,4-7.24,4-12.8,0-3.49-1.26-10.4-5.23-14.22A10.66,10.66,0,0,0,701,61a8.15,8.15,0,0,0-5.45,2.56"/><path class="cls-1" d="M743.17,60c.54,1.2,1.53,4.2,2.07,5.78,3,8.66,6.59,18.14,7.79,21.08,1.74,4.36,3.1,5,4.68,5.51.93.27,1.48.65,1.48,1s-.6.87-1.8.87-5.94-.22-7.3-.22c-1.8,0-4.63.11-6.05.11-1,0-1.74-.32-1.74-.87,0-.27.38-.71,1.41-1,2.13-.54,2.24-1.31,2.24-2.07,0-1-1-3.81-2.29-7.3a2.63,2.63,0,0,0-1-.93c-7.14,0-8.72.17-9.32.17-.16,0-.49.38-.6.6-1.85,4.68-2.07,6.15-2.07,7.08,0,1.31.66,2,2.51,2.45,1.14.27,1.58.55,1.58,1.14,0,.39-.65.71-1.69.71s-2.34-.11-4.36-.11-4.41.22-5.23.22c-1.41,0-1.74-.38-1.74-.71s.16-.76,1.42-1.09c2.77-.7,3.37-1.9,4.9-5,1.36-2.56,7.13-17.65,9.31-22.78,0,0,.28-.7.33-.92a2.74,2.74,0,0,1,.44-.71c.65-.76,2.61-2.89,3-3.49a1.43,1.43,0,0,1,1-.7c.33,0,.54,0,1,1.08m-.71,18.85c-.76-2.39-2.94-8.28-3.81-10.51-.11-.44-.49-.22-.66.22-1,2.61-3.54,9.1-3.75,10.19a.5.5,0,0,0,.43.65c2.07-.06,5.88-.11,7.57-.06a.39.39,0,0,0,.22-.49"/><path class="cls-1" d="M788.71,59.72c2.94-.22,3.71-.44,4.41-.82.44-.27.71-.49.93-.49s.82.71.6,1.47a37.76,37.76,0,0,0-1.09,6.37c0,.5-.38,1.58-1.09,1.58-.38,0-.76-.27-1-1.68-.66-3.27-1.31-3.87-3.71-3.87a60.29,60.29,0,0,0-6.16.27.63.63,0,0,0-.54.65c0,2.51-.11,5.67-.11,10.35,0,6.27.11,12.37.33,15.42.11,1.42.6,2.67,4.41,3.43a1.68,1.68,0,0,1,1.25,1.15c0,.43-.87.76-1.47.76-.43,0-8-.22-9-.22-1.19,0-6.1.33-7.08.33s-1.74-.22-1.74-.65c0-.6.71-1.09,1.31-1.26,3.37-.87,3.7-1.47,3.92-5.17.22-3.22.49-14,.49-18.09,0-3.1-.06-5.34-.06-6.26a.77.77,0,0,0-.65-.77c-1-.16-4.52-.21-5.88-.21a6.25,6.25,0,0,0-2.51,1.25,24.54,24.54,0,0,0-1.91,2.89c-.7,1.09-1,1.63-1.25,1.63-.65,0-.93-.71-.93-1.25,0-1,.93-4.85,1-7.41,0-.16.49-1.2.93-1.2s.7.49.92.87a4.48,4.48,0,0,0,2.45.76c1,.11,9.65.33,11.72.33,3.16,0,9.91-.05,11.49-.16"/><path class="cls-1" d="M796.77,59.5c1.53,0,5,.38,7.52.38,1.53,0,3.65-.11,5.78-.11.87,0,1.47.33,1.47.66a1.55,1.55,0,0,1-1.31,1.19c-1.74.33-2.13,1.26-1.42,2.67.66,1.2,3.54,6.43,5.83,10.41.11.16.6,0,.76-.16.6-1,4.2-6.71,5.62-9.54.81-1.58,1-2.83-1.75-3.43-.76-.16-1.63-.65-1.63-1.31,0-.38.76-.54,1.2-.54,1.36,0,2.5.16,3.76.16s5.83-.33,6.7-.33,1.3.11,1.3.6-.7,1-1.58,1.31c-2.56.65-3.48,2-5.28,4.14a119.4,119.4,0,0,0-7.25,10.62A7.12,7.12,0,0,0,816,79c0,3,.17,8.66.39,10.46.16,1.52.43,2.29,3.26,3,1.09.27,1.48.71,1.48,1.09s-.66.82-1.75.82c-.76,0-5.39-.28-6.59-.28-3.81,0-7.35.38-8.06.38s-1.47-.16-1.47-.7c0-.33.49-.87,1.63-1.2,2.83-.87,3.49-1.58,3.54-2.45.16-2.62.06-8.72.06-10.24a18.41,18.41,0,0,0-.49-2.95c-.93-1.85-4.09-6.86-6.32-10.57s-3.55-4.63-5.07-5c-.93-.22-1.58-.6-1.58-1.09s.82-.76,1.74-.76"/><path class="cls-1" d="M598.46,111.72c.54,1.19,1.52,4.19,2.07,5.77,3.05,8.66,6.59,18.14,7.79,21.08,1.74,4.36,3.1,5,4.68,5.51.93.27,1.47.65,1.47,1s-.6.87-1.8.87-5.93-.21-7.3-.21c-1.79,0-4.63.11-6,.11-1,0-1.75-.33-1.75-.88,0-.27.39-.71,1.42-1,2.12-.54,2.23-1.3,2.23-2.07,0-1-1-3.81-2.28-7.3a2.67,2.67,0,0,0-1-.92c-7.14-.06-8.72.16-9.32.16-.16,0-.49.38-.6.6-1.85,4.68-2.07,6.15-2.07,7.08,0,1.31.65,2,2.51,2.45,1.14.27,1.58.55,1.58,1.15,0,.38-.66.71-1.69.71s-2.35-.11-4.36-.11-4.41.21-5.23.21c-1.42,0-1.75-.38-1.75-.7s.17-.77,1.42-1.09c2.78-.71,3.38-1.91,4.91-5,1.36-2.56,7.13-17.65,9.31-22.77,0,0,.27-.71.33-.93a2.82,2.82,0,0,1,.43-.71c.66-.76,2.62-2.89,3-3.48a1.4,1.4,0,0,1,1-.71c.33,0,.55.05,1,1.09m-.71,18.85c-.77-2.4-2.94-8.28-3.82-10.52-.1-.43-.49-.22-.65.22-1,2.61-3.54,9.1-3.76,10.19a.51.51,0,0,0,.44.65c2.07-.05,5.88-.11,7.57-.05a.4.4,0,0,0,.22-.49"/><path class="cls-1" d="M619,111.39c1.31,0,4.31.16,6,.16s5-.16,6.32-.16,1.86.33,1.86.82-1,.87-1.42,1c-2.18.65-2.56.81-2.72,3.48-.11,2.07-.06,7.85-.06,11,0,.33.11.39.38.39a2.33,2.33,0,0,0,1-.49c2-1.42,8-7.52,11.06-11.39,1.15-1.36,1.36-2.29-1.14-2.83-.71-.17-1.42-.49-1.42-.93s.44-.82,1.42-.82h2.4c4.46,0,7.35-.32,8.88-.32,1.14,0,1.63.27,1.63.71s-.87.92-2.18,1.14c-3.21.54-5.39,2.56-7.3,4.08a95.1,95.1,0,0,0-7.9,7.63c-.16.11-.11.44,0,.55,1.25,2.12,10.24,13.07,13.34,16.34a7.59,7.59,0,0,0,4.85,2.61,1.76,1.76,0,0,1,1.2,1c0,.54-1.09.92-1.69.92-1.47,0-8.33-.43-9.86-.43-2,0-3.65.16-4.85.16-.92,0-1.3-.38-1.3-.87,0-.33.54-.6,2.66-1.42.22-.11.06-.65-.05-.82-1.74-2.45-6.48-9-8.77-11.65-1.42-1.64-1.58-1.91-1.85-1.91s-.44.11-.44,1.36c0,5.78.22,9.1.27,11.06,0,.76.33,1.58,2.56,2.18,1,.27,1.64.65,1.64,1.14s-1,.87-1.85.87c-1.2,0-5.12-.1-6.81-.1s-4.85.21-6.59.21c-.82,0-1.53-.43-1.53-.81s.44-.82,1.58-1.09c2.72-.6,3-1.47,3.27-4.69.16-2.5.11-6.26.11-12.09,0-8.61-.11-7.9-.17-9.86-.05-2.89-.43-3.49-2.5-4.09-1.47-.44-1.64-.87-1.64-1.14,0-.49.88-.82,1.69-.82"/><path class="cls-1" d="M674.18,111.72c.54,1.19,1.52,4.19,2.07,5.77,3,8.66,6.59,18.14,7.79,21.08,1.74,4.36,3.1,5,4.68,5.51.93.27,1.47.65,1.47,1s-.6.87-1.79.87-5.94-.21-7.31-.21c-1.79,0-4.63.11-6,.11-1,0-1.74-.33-1.74-.88,0-.27.38-.71,1.41-1,2.13-.54,2.23-1.3,2.23-2.07,0-1-1-3.81-2.28-7.3a2.67,2.67,0,0,0-1-.92c-7.14-.06-8.72.16-9.32.16-.16,0-.49.38-.6.6-1.85,4.68-2.07,6.15-2.07,7.08,0,1.31.65,2,2.51,2.45,1.14.27,1.58.55,1.58,1.15,0,.38-.66.71-1.69.71s-2.34-.11-4.36-.11-4.41.21-5.23.21c-1.42,0-1.74-.38-1.74-.7s.16-.77,1.41-1.09c2.78-.71,3.38-1.91,4.91-5,1.36-2.56,7.13-17.65,9.31-22.77,0,0,.27-.71.33-.93a2.63,2.63,0,0,1,.44-.71c.65-.76,2.61-2.89,3-3.48a1.4,1.4,0,0,1,1-.71c.32,0,.54.05,1,1.09m-7-7.74a1.83,1.83,0,0,1,1.53-.65c2.39,0,7.57.49,9,.49,1,0,1.47-.28,2.67-2,.16-.28.33-.44.6-.44s.76.6.93.87-.11.82-.38,1.15c-.93.92-2.84,3.37-3.71,4.08s-.87.6-1.31.6c-1.9,0-8.39-1-9.37-.65a4.88,4.88,0,0,0-2.18,2c-.21.38-.43.54-.59.54a1.24,1.24,0,0,1-1.09-.7,6.34,6.34,0,0,1,.87-1.75,16.38,16.38,0,0,1,3-3.54m6.27,26.59c-.76-2.4-2.94-8.28-3.81-10.52-.11-.43-.49-.22-.66.22-1,2.61-3.54,9.1-3.76,10.19a.51.51,0,0,0,.44.65c2.07-.05,5.88-.11,7.57-.05a.4.4,0,0,0,.22-.49"/><path class="cls-1" d="M716.5,126.59a17.69,17.69,0,0,1-2.39,1.31c-.27.11-.17.49-.06.7a94.73,94.73,0,0,0,8.17,13.13,7.43,7.43,0,0,0,4.36,2.46c.55.1,1,.54,1,.76s-.55.76-1,.87a16.07,16.07,0,0,1-3.93.49c-6.1,0-7.78-2.23-8.71-3.54-1.31-1.85-4.14-6.43-6.48-10.62a7.41,7.41,0,0,0-1.48-2.07,4,4,0,0,0-2-.71.77.77,0,0,0-.6.49c-.11,1.14,0,8.55.11,10.78.22,2.4.49,2.84,2.94,3.49.93.27,1.36.65,1.36,1.09,0,.6-1,.87-1.85.87-1.8,0-4.85-.32-7-.32-2.4,0-5.07.21-5.67.21-1.63,0-1.85-.43-1.85-.92,0-.28.65-.71,1.36-.93,2.56-.76,3-1.58,3.11-3.16.43-5.34.32-9.42.32-14.65,0-4.58-.11-9-.22-10.25-.1-1-.54-2.12-3.15-2.72-.77-.16-1.42-.6-1.42-1s.87-.88,1.63-.88h4.47c2,0,6.87-.27,9.81-.27,1.85,0,6.92.11,9.75,2.45A8.86,8.86,0,0,1,720,120c0,2.94-1.25,4.63-3.49,6.59M710,114.93a5.3,5.3,0,0,0-3.92-1.8,6.84,6.84,0,0,0-1.85.38,2.53,2.53,0,0,0-.6,1.15c-.17,1.8-.44,10.84-.22,12.53a.82.82,0,0,0,.65.54,13,13,0,0,0,5.45-1.09,6.88,6.88,0,0,0,2.78-5.77,8.24,8.24,0,0,0-2.29-5.94"/><path class="cls-1" d="M746,111.72c.55,1.19,1.53,4.19,2.07,5.77,3,8.66,6.59,18.14,7.79,21.08,1.74,4.36,3.11,5,4.69,5.51.92.27,1.47.65,1.47,1s-.6.87-1.8.87-5.94-.21-7.3-.21c-1.8,0-4.63.11-6.05.11-1,0-1.74-.33-1.74-.88,0-.27.38-.71,1.42-1,2.12-.54,2.23-1.3,2.23-2.07,0-1-1-3.81-2.29-7.3a2.6,2.6,0,0,0-1-.92c-7.14-.06-8.72.16-9.32.16-.16,0-.49.38-.59.6-1.86,4.68-2.08,6.15-2.08,7.08,0,1.31.66,2,2.51,2.45,1.14.27,1.58.55,1.58,1.15,0,.38-.65.71-1.69.71s-2.34-.11-4.36-.11-4.41.21-5.23.21c-1.41,0-1.74-.38-1.74-.7s.16-.77,1.42-1.09c2.77-.71,3.37-1.91,4.9-5,1.36-2.56,7.14-17.65,9.32-22.77,0,0,.27-.71.32-.93a2.92,2.92,0,0,1,.44-.71c.65-.76,2.61-2.89,3-3.48a1.42,1.42,0,0,1,1-.71c.33,0,.54.05,1,1.09m-.71,18.85c-.76-2.4-2.94-8.28-3.81-10.52-.11-.43-.49-.22-.65.22-1,2.61-3.55,9.1-3.76,10.19a.5.5,0,0,0,.43.65c2.07-.05,5.89-.11,7.57-.05a.4.4,0,0,0,.22-.49"/><path class="cls-1" d="M778.71,113a3.11,3.11,0,0,0-1.41.49,3.53,3.53,0,0,0-.44,2c-.05,1.09-.05,7.79-.11,14,0,4.9.06,8,.06,9.31.05,3.22.11,4.52,3.48,5.29,1.09.21,1.53.7,1.53,1.2s-.87.81-1.63.81c-1.42,0-5.12-.32-7.47-.32-1.63,0-4.52.16-6.15.16-1.47,0-2.29-.22-2.29-.93,0-.38.87-.87,1.42-1,2.45-.6,3.15-1.31,3.37-3.92.17-2,.33-5.07.33-7.85,0-1.74,0-14.27-.11-15.69-.16-1.91-.65-2.83-3.59-3.21-.55-.06-1.09-.49-1.09-.82s.49-.82,1.14-.93c.33,0,1.31,0,1.8,0,4.08,0,8.66-.49,11.06-.49,5.28,0,9,.82,11.33,3.16a10.71,10.71,0,0,1-.28,15.47,12.94,12.94,0,0,1-6.7,2.45,12,12,0,0,1-2.77-.33c-.82-.38-1.26-.65-1.26-1.19,0-.22.44-.6.87-.6h.55c2,0,5.07-2.84,5.07-8.18,0-4.08-2.56-8.77-6.71-8.77"/><path class="cls-1" d="M798.76,111.28c2.29,0,4.74.27,6.7.27s5.56-.27,6.76-.27c1,0,1.58.44,1.58.87s-.66.93-1.69,1.15c-2,.38-2.45,1.09-2.78,3.21-.22,1.8-.22,6.81-.22,14.49,0,6.38,1.31,8.06,3.11,9.86,1.47,1.47,5.06,2.18,6,2.18,3.81,0,7.84-1,9.2-6.92.66-2.88.93-7.52.93-15.69a17,17,0,0,0-.27-4.41c-.22-1.42-1.37-2.29-3.66-2.89-.54-.16-1.57-.54-1.57-1.14,0-.33.6-.71,1.57-.71,1.26,0,3.44.27,5.18.27,2.18,0,3.6-.27,5.12-.27.87,0,1.36.44,1.36.87s-.76.82-1.52,1c-2.78.6-3.49,1.75-3.49,5.12,0,2.67-.33,9.37-.43,12.21-.44,9-3.27,12.36-7.14,14.6a14.67,14.67,0,0,1-7.25,1.69c-4.95,0-8.44-1.53-10.46-3.38-3.05-2.83-4.3-5.78-4.3-14.27,0-2.29-.22-12.75-.27-13.41-.11-1-.55-2-2.62-2.45-.6-.16-1.58-.6-1.58-1.09s.71-.87,1.69-.87"/><path class="cls-1" d="M847.79,114.93c0,6-6.21,8.23-7.63,8.23-.49,0-1.14-.17-1.14-.55a1.64,1.64,0,0,1,1-1.36c2.61-1,3.7-2.56,3.7-4.36,0-1.2-.6-1.85-2.56-2.23a2.12,2.12,0,0,1-1.9-2.4,3.49,3.49,0,0,1,3.65-3.38c2.61,0,4.9,1.91,4.9,6.05"/><path class="cls-1" d="M869.69,111.72c.54,1.19,1.52,4.19,2.07,5.77,3,8.66,6.59,18.14,7.79,21.08,1.74,4.36,3.1,5,4.68,5.51.93.27,1.47.65,1.47,1s-.59.87-1.79.87-5.94-.21-7.3-.21c-1.8,0-4.63.11-6.05.11-1,0-1.74-.33-1.74-.88,0-.27.38-.71,1.41-1,2.13-.54,2.24-1.3,2.24-2.07,0-1-1-3.81-2.29-7.3a2.67,2.67,0,0,0-1-.92c-7.14-.06-8.72.16-9.32.16-.16,0-.49.38-.6.6-1.85,4.68-2.07,6.15-2.07,7.08,0,1.31.66,2,2.51,2.45,1.14.27,1.58.55,1.58,1.15,0,.38-.65.71-1.69.71s-2.34-.11-4.36-.11-4.41.21-5.23.21c-1.41,0-1.74-.38-1.74-.7s.16-.77,1.41-1.09c2.78-.71,3.38-1.91,4.91-5,1.36-2.56,7.14-17.65,9.31-22.77,0,0,.28-.71.33-.93a2.92,2.92,0,0,1,.44-.71c.65-.76,2.61-2.89,3-3.48a1.42,1.42,0,0,1,1-.71c.33,0,.54.05,1,1.09M869,130.57c-.76-2.4-2.94-8.28-3.81-10.52-.11-.43-.49-.22-.66.22-1,2.61-3.54,9.1-3.76,10.19a.51.51,0,0,0,.44.65c2.07-.05,5.88-.11,7.57-.05a.4.4,0,0,0,.22-.49"/><path class="cls-1" d="M913.11,126.59a18.69,18.69,0,0,1-2.4,1.31c-.27.11-.16.49-.06.7a93.9,93.9,0,0,0,8.18,13.13,7.38,7.38,0,0,0,4.35,2.46c.55.1,1,.54,1,.76s-.55.76-1,.87a16.06,16.06,0,0,1-3.92.49c-6.1,0-7.79-2.23-8.72-3.54-1.31-1.85-4.14-6.43-6.48-10.62a7.39,7.39,0,0,0-1.47-2.07,4,4,0,0,0-2-.71.78.78,0,0,0-.6.49c-.11,1.14,0,8.55.11,10.78.22,2.4.49,2.84,2.94,3.49.93.27,1.36.65,1.36,1.09,0,.6-1,.87-1.85.87-1.8,0-4.85-.32-7-.32-2.4,0-5.07.21-5.67.21-1.63,0-1.85-.43-1.85-.92,0-.28.65-.71,1.36-.93,2.56-.76,3-1.58,3.11-3.16.43-5.34.33-9.42.33-14.65,0-4.58-.11-9-.22-10.25-.11-1-.55-2.12-3.16-2.72-.77-.16-1.42-.6-1.42-1s.87-.88,1.63-.88h4.47c2,0,6.87-.27,9.81-.27,1.85,0,6.92.11,9.75,2.45a8.86,8.86,0,0,1,2.83,6.38c0,2.94-1.25,4.63-3.48,6.59m-6.49-11.66a5.3,5.3,0,0,0-3.92-1.8,6.84,6.84,0,0,0-1.85.38,2.53,2.53,0,0,0-.6,1.15c-.16,1.8-.44,10.84-.22,12.53a.84.84,0,0,0,.66.54,13,13,0,0,0,5.44-1.09,6.88,6.88,0,0,0,2.78-5.77,8.24,8.24,0,0,0-2.29-5.94"/><path class="cls-1" d="M942.63,111.72c.55,1.19,1.53,4.19,2.07,5.77,3,8.66,6.59,18.14,7.79,21.08,1.75,4.36,3.11,5,4.69,5.51.92.27,1.47.65,1.47,1s-.6.87-1.8.87-5.94-.21-7.3-.21c-1.8,0-4.63.11-6,.11-1,0-1.74-.33-1.74-.88,0-.27.38-.71,1.42-1,2.12-.54,2.23-1.3,2.23-2.07,0-1-1-3.81-2.29-7.3a2.6,2.6,0,0,0-1-.92c-7.13-.06-8.72.16-9.31.16-.17,0-.5.38-.6.6-1.86,4.68-2.07,6.15-2.07,7.08,0,1.31.65,2,2.5,2.45,1.15.27,1.58.55,1.58,1.15,0,.38-.65.71-1.69.71s-2.34-.11-4.35-.11-4.42.21-5.24.21c-1.41,0-1.74-.38-1.74-.7s.16-.77,1.42-1.09c2.78-.71,3.38-1.91,4.9-5,1.36-2.56,7.14-17.65,9.32-22.77,0,0,.27-.71.32-.93a2.92,2.92,0,0,1,.44-.71c.65-.76,2.62-2.89,3-3.48a1.39,1.39,0,0,1,1-.71c.33,0,.55.05,1,1.09m-7-7.74a1.82,1.82,0,0,1,1.52-.65c2.4,0,7.58.49,9.05.49,1,0,1.47-.28,2.67-2,.16-.28.32-.44.6-.44s.76.6.92.87-.11.82-.38,1.15c-.93.92-2.83,3.37-3.7,4.08s-.87.6-1.31.6c-1.91,0-8.39-1-9.37-.65a4.78,4.78,0,0,0-2.18,2c-.22.38-.44.54-.6.54a1.24,1.24,0,0,1-1.09-.7,6.34,6.34,0,0,1,.87-1.75,16.41,16.41,0,0,1,3-3.54m6.26,26.59c-.76-2.4-2.94-8.28-3.81-10.52-.11-.43-.49-.22-.65.22-1,2.61-3.54,9.1-3.76,10.19a.51.51,0,0,0,.43.65c2.07-.05,5.89-.11,7.57-.05a.4.4,0,0,0,.22-.49"/><path class="cls-1" d="M578,27.42h7.36a9.08,9.08,0,0,1,2.94.44,6.19,6.19,0,0,1,2.24,1.26,5.56,5.56,0,0,1,1.42,2,6.6,6.6,0,0,1,.49,2.56v.06a6.15,6.15,0,0,1-.59,2.75,5.77,5.77,0,0,1-1.6,2,7.13,7.13,0,0,1-2.38,1.21,9.84,9.84,0,0,1-2.91.42h-3.71v6H578Zm7.08,9.7a4.32,4.32,0,0,0,2.95-.94,3,3,0,0,0,1.09-2.41v-.05a3,3,0,0,0-1.1-2.5,4.71,4.71,0,0,0-2.94-.85h-3.82v6.75Z"/><path class="cls-1" d="M602.4,27.28h3l8.21,18.79h-3.46l-1.9-4.5h-8.82l-1.91,4.5H594.2Zm4.69,11.38-3.22-7.46-3.2,7.46Z"/><path class="cls-1" d="M616.85,27.42h8.31a9.12,9.12,0,0,1,3.12.49,6.28,6.28,0,0,1,2.26,1.37,5.44,5.44,0,0,1,1.15,1.79,6,6,0,0,1,.4,2.24v0a6.16,6.16,0,0,1-.33,2.07,5.39,5.39,0,0,1-2.32,2.82,6.92,6.92,0,0,1-1.8.76l5,7.06h-3.87l-4.59-6.5H620.1v6.5h-3.25Zm8.06,9.24a4.36,4.36,0,0,0,2.81-.84,2.79,2.79,0,0,0,1-2.29v-.05a2.76,2.76,0,0,0-1-2.32,4.59,4.59,0,0,0-2.86-.79H620.1v6.29Z"/><path class="cls-1" d="M642.72,27.28h3L654,46.07h-3.46l-1.9-4.5h-8.82l-1.92,4.5h-3.35Zm4.69,11.38-3.22-7.46L641,38.66Z"/><path class="cls-1" d="M666,46.39a10.36,10.36,0,0,1-4-.73,8.92,8.92,0,0,1-5-5.07,10.18,10.18,0,0,1-.69-3.79v-.06a9.86,9.86,0,0,1,.71-3.7,9.52,9.52,0,0,1,2-3.08A9.56,9.56,0,0,1,666,27.1a12.6,12.6,0,0,1,2.22.17,10.61,10.61,0,0,1,1.85.49,10.12,10.12,0,0,1,1.62.79,12.1,12.1,0,0,1,1.48,1.08l-2.08,2.48a12.19,12.19,0,0,0-1.1-.83,6.6,6.6,0,0,0-1.17-.63,7.49,7.49,0,0,0-1.34-.39,8.12,8.12,0,0,0-1.62-.15,5.49,5.49,0,0,0-2.38.53,6.18,6.18,0,0,0-1.92,1.43,6.76,6.76,0,0,0-1.28,2.1,6.92,6.92,0,0,0-.46,2.53v.06a7.71,7.71,0,0,0,.45,2.67,6,6,0,0,0,1.29,2.11,6.15,6.15,0,0,0,2,1.39,6.5,6.5,0,0,0,2.59.5,7.73,7.73,0,0,0,2.49-.39,6.86,6.86,0,0,0,2-1V38.5h-4.77V35.65h7.94v7.84a14.4,14.4,0,0,1-1.53,1.12,12.31,12.31,0,0,1-1.81.93,12.11,12.11,0,0,1-2.09.62,11.93,11.93,0,0,1-2.35.23"/><path class="cls-1" d="M685.71,46.36a9.69,9.69,0,0,1-3.28-.52,6.6,6.6,0,0,1-2.51-1.55,7.1,7.1,0,0,1-1.6-2.58,10.38,10.38,0,0,1-.55-3.55V27.42H681V38a5.63,5.63,0,0,0,1.26,4,4.5,4.5,0,0,0,3.48,1.36,4.59,4.59,0,0,0,3.46-1.3,5.4,5.4,0,0,0,1.26-3.89V27.42h3.25V38a10.47,10.47,0,0,1-.58,3.65,7,7,0,0,1-1.61,2.62A6.42,6.42,0,0,1,689,45.84a9.83,9.83,0,0,1-3.31.52"/><path class="cls-1" d="M704.84,27.28h3l8.21,18.79h-3.47l-1.89-4.5h-8.82L700,46.07h-3.36Zm4.69,11.38L706.3,31.2l-3.19,7.46ZM707.85,21.5l2.93,1.31-3.25,3.06H705Z"/><rect class="cls-1" x="719.47" y="27.42" width="3.25" height="18.65"/></svg>